<svg xmlns:xlink="http://www.w3.org/1999/xlink" width="14" height="14" viewBox="0 0 14 14" fill="none" xmlns="http://www.w3.org/2000/svg"><path fill-rule="evenodd" clip-rule="evenodd" d="M7 13C10.3137 13 13 10.3137 13 7C13 3.68629 10.3137 1 7 1C3.68629 1 1 3.68629 1 7C1 10.3137 3.68629 13 7 13ZM4 7.5H10V6.5H4V7.5Z" fill="#EB5757"></path> <path d="M10 7.5V8H10.5V7.5H10ZM4 7.5H3.5V8H4V7.5ZM10 6.5H10.5V6H10V6.5ZM4 6.5V6H3.5V6.5H4ZM12.5 7C12.5 10.0376 10.0376 12.5 7 12.5V13.5C10.5899 13.5 13.5 10.5899 13.5 7H12.5ZM7 1.5C10.0376 1.5 12.5 3.96243 12.5 7H13.5C13.5 3.41015 10.5899 0.5 7 0.5V1.5ZM1.5 7C1.5 3.96243 3.96243 1.5 7 1.5V0.5C3.41015 0.5 0.5 3.41015 0.5 7H1.5ZM7 12.5C3.96243 12.5 1.5 10.0376 1.5 7H0.5C0.5 10.5899 3.41015 13.5 7 13.5V12.5ZM10 7H4V8H10V7ZM9.5 6.5V7.5H10.5V6.5H9.5ZM4 7H10V6H4V7ZM4.5 7.5V6.5H3.5V7.5H4.5Z" fill="#FFFFFF"></path></svg>