<svg xmlns:xlink="http://www.w3.org/1999/xlink" width="14" height="14" viewBox="0 0 14 14" fill="none" xmlns="http://www.w3.org/2000/svg"><path fill-rule="evenodd" clip-rule="evenodd" d="M7 13C10.3137 13 13 10.3137 13 7C13 3.68629 10.3137 1 7 1C3.68629 1 1 3.68629 1 7C1 10.3137 3.68629 13 7 13ZM6.35355 9.35355L10.3536 5.35355L9.64645 4.64645L6 8.29289L4.35355 6.64645L3.64645 7.35355L5.64645 9.35355L6 9.70711L6.35355 9.35355Z" fill="#5CB85B"></path> <path d="M10.3536 5.35355L10.7071 5.70711L11.0607 5.35355L10.7071 5L10.3536 5.35355ZM6.35355 9.35355L6.70711 9.70711L6.35355 9.35355ZM9.64645 4.64645L10 4.29289L9.64645 3.93934L9.29289 4.29289L9.64645 4.64645ZM6 8.29289L5.64645 8.64645L6 9L6.35355 8.64645L6 8.29289ZM4.35355 6.64645L4.70711 6.29289L4.35355 5.93934L4 6.29289L4.35355 6.64645ZM3.64645 7.35355L3.29289 7L2.93934 7.35355L3.29289 7.70711L3.64645 7.35355ZM5.64645 9.35355L5.29289 9.70711L5.64645 9.35355ZM6 9.70711L5.64645 10.0607L6 10.4142L6.35355 10.0607L6 9.70711ZM12.5 7C12.5 10.0376 10.0376 12.5 7 12.5V13.5C10.5899 13.5 13.5 10.5899 13.5 7H12.5ZM7 1.5C10.0376 1.5 12.5 3.96243 12.5 7H13.5C13.5 3.41015 10.5899 0.5 7 0.5V1.5ZM1.5 7C1.5 3.96243 3.96243 1.5 7 1.5V0.5C3.41015 0.5 0.5 3.41015 0.5 7H1.5ZM7 12.5C3.96243 12.5 1.5 10.0376 1.5 7H0.5C0.5 10.5899 3.41015 13.5 7 13.5V12.5ZM10 5L6 9L6.70711 9.70711L10.7071 5.70711L10 5ZM9.29289 5L10 5.70711L10.7071 5L10 4.29289L9.29289 5ZM6.35355 8.64645L10 5L9.29289 4.29289L5.64645 7.93934L6.35355 8.64645ZM4 7L5.64645 8.64645L6.35355 7.93934L4.70711 6.29289L4 7ZM4 7.70711L4.70711 7L4 6.29289L3.29289 7L4 7.70711ZM6 9L4 7L3.29289 7.70711L5.29289 9.70711L6 9ZM6.35355 9.35355L6 9L5.29289 9.70711L5.64645 10.0607L6.35355 9.35355ZM6 9L5.64645 9.35355L6.35355 10.0607L6.70711 9.70711L6 9Z" fill="#FFFFFF"></path></svg>