<svg xmlns:xlink="http://www.w3.org/1999/xlink" width="30" height="30" viewBox="0 0 30 30" fill="none" xmlns="http://www.w3.org/2000/svg"><rect x="3" y="3" width="24" height="24" rx="8" fill="#FFFFFF"></rect> <path fill-rule="evenodd" clip-rule="evenodd" d="M15 3C11.741 3 11.3323 3.01383 10.0524 3.07223C8.77516 3.1305 7.90282 3.33333 7.1395 3.63C6.3504 3.93666 5.68117 4.34701 5.01409 5.01413C4.34696 5.68121 3.93661 6.35045 3.62996 7.13955C3.33328 7.90282 3.13045 8.77516 3.07219 10.0524C3.01378 11.3323 3 11.741 3 15C3 18.259 3.01378 18.6677 3.07219 19.9476C3.13045 21.2248 3.33328 22.0972 3.62996 22.8605C3.93661 23.6495 4.34696 24.3188 5.01409 24.986C5.68117 25.653 6.3504 26.0634 7.1395 26.37C7.90282 26.6667 8.77516 26.8695 10.0524 26.9278C11.3323 26.9862 11.741 27 15 27C18.259 27 18.6677 26.9862 19.9476 26.9278C21.2248 26.8695 22.0972 26.6667 22.8605 26.37C23.6495 26.0634 24.3188 25.653 24.986 24.986C25.653 24.3188 26.0634 23.6495 26.37 22.8605C26.6667 22.0972 26.8695 21.2248 26.9278 19.9476C26.9862 18.6677 27 18.259 27 15C27 11.741 26.9862 11.3323 26.9278 10.0524C26.8695 8.77516 26.6667 7.90282 26.37 7.13955C26.0634 6.35045 25.653 5.68121 24.986 5.01413C24.3188 4.34701 23.6495 3.93666 22.8605 3.63C22.0972 3.33333 21.2248 3.1305 19.9476 3.07223C18.6677 3.01383 18.259 3 15 3ZM15 5.16221C18.2042 5.16221 18.5837 5.1744 19.8491 5.23215C21.019 5.28554 21.6544 5.48101 22.0773 5.64531C22.6374 5.863 23.0371 6.12306 23.457 6.54297C23.877 6.96288 24.137 7.36267 24.3547 7.92274C24.519 8.3456 24.7145 8.98099 24.7679 10.1509C24.8256 11.4163 24.8378 11.7959 24.8378 15C24.8378 18.2042 24.8256 18.5837 24.7679 19.8491C24.7145 21.019 24.519 21.6544 24.3547 22.0773C24.137 22.6374 23.877 23.0371 23.457 23.457C23.0371 23.877 22.6374 24.137 22.0773 24.3547C21.6544 24.519 21.019 24.7145 19.8491 24.7679C18.5839 24.8256 18.2044 24.8378 15 24.8378C11.7956 24.8378 11.4162 24.8256 10.1509 24.7679C8.98099 24.7145 8.3456 24.519 7.92274 24.3547C7.36263 24.137 6.96288 23.877 6.54292 23.457C6.12301 23.0371 5.86295 22.6374 5.64531 22.0773C5.48096 21.6544 5.28549 21.019 5.2321 19.8491C5.17435 18.5837 5.16216 18.2042 5.16216 15C5.16216 11.7959 5.17435 11.4163 5.2321 10.1509C5.28549 8.98099 5.48096 8.3456 5.64531 7.92274C5.86295 7.36267 6.12301 6.96288 6.54292 6.54297C6.96288 6.12306 7.36263 5.863 7.92274 5.64531C8.3456 5.48101 8.98099 5.28554 10.1509 5.23215C11.4163 5.1744 11.7959 5.16221 15 5.16221ZM14.9984 19.001C12.7892 19.001 10.9984 17.2101 10.9984 15.001C10.9984 12.7919 12.7892 11.001 14.9984 11.001C17.2075 11.001 18.9984 12.7919 18.9984 15.001C18.9984 17.2101 17.2075 19.001 14.9984 19.001ZM14.9984 8.83882C11.5951 8.83882 8.8362 11.5977 8.8362 15.001C8.8362 18.4043 11.5951 21.1632 14.9984 21.1632C18.4016 21.1632 21.1605 18.4043 21.1605 15.001C21.1605 11.5977 18.4016 8.83882 14.9984 8.83882ZM21.4032 10.0343C22.1985 10.0343 22.8432 9.3896 22.8432 8.59427C22.8432 7.79899 22.1985 7.15431 21.4032 7.15431C20.6079 7.15431 19.9632 7.79899 19.9632 8.59427C19.9632 9.3896 20.6079 10.0343 21.4032 10.0343Z" fill="url(&quot;#paint0_linear_0.5700378195624458&quot;)"></path> <defs><linearGradient id="paint0_linear_0.5700378195624458" x1="17.0981" y1="1.72826" x2="10.0847" y2="24.8987" gradientUnits="userSpaceOnUse"><stop stop-color="#515BD4"></stop> <stop offset="0.26" stop-color="#9510B8"></stop> <stop offset="0.66" stop-color="#E51804"></stop> <stop offset="1" stop-color="#FFBF00"></stop></linearGradient></defs></svg>