<svg xmlns:xlink="http://www.w3.org/1999/xlink" width="30" height="30" viewBox="0 0 30 30" fill="none" xmlns="http://www.w3.org/2000/svg"><rect x="3" y="3" width="24" height="24" rx="6" fill="#FFFFFF"></rect> <path fill-rule="evenodd" clip-rule="evenodd" d="M24.0678 3C25.6861 3 27 4.31391 27 5.93222V24.0678C27 25.6861 25.6861 27 24.0678 27H19.0771V17.9571H22.199L22.793 14.0843H19.0771V11.571C19.0771 10.5114 19.5961 9.47864 21.2605 9.47864H22.95V6.18145C22.95 6.18145 21.4167 5.9198 19.9508 5.9198C16.8905 5.9198 14.8902 7.77459 14.8902 11.1325V14.0843H11.4884V17.9571H14.8902V27H5.93222C4.31391 27 3 25.6861 3 24.0678V5.93222C3 4.31391 4.31386 3 5.93222 3H24.0678V3Z" fill="#1778F2"></path></svg>